<mxfile host="app.diagrams.net" agent="Mozilla/5.0 (Windows NT 10.0; Win64; x64) AppleWebKit/537.36 (KHTML, like Gecko) Chrome/135.0.0.0 Safari/537.36" version="26.2.5">
  <diagram name="Page-1" id="4jkMKxIa9DFJnjPbxsZc">
    <mxGraphModel dx="1680" dy="2043" grid="1" gridSize="10" guides="1" tooltips="1" connect="1" arrows="1" fold="1" page="1" pageScale="1" pageWidth="827" pageHeight="1169" math="0" shadow="0">
      <root>
        <mxCell id="0" />
        <mxCell id="1" parent="0" />
        <mxCell id="nb88-6SHs_HvfBZo1xa0-10" style="edgeStyle=orthogonalEdgeStyle;rounded=0;orthogonalLoop=1;jettySize=auto;html=1;exitX=1;exitY=0.5;exitDx=0;exitDy=0;entryX=0;entryY=0.5;entryDx=0;entryDy=0;" edge="1" parent="1" source="nb88-6SHs_HvfBZo1xa0-3" target="nb88-6SHs_HvfBZo1xa0-4">
          <mxGeometry relative="1" as="geometry" />
        </mxCell>
        <mxCell id="nb88-6SHs_HvfBZo1xa0-39" style="edgeStyle=orthogonalEdgeStyle;rounded=0;orthogonalLoop=1;jettySize=auto;html=1;entryX=0.5;entryY=0;entryDx=0;entryDy=0;strokeColor=default;endArrow=none;startFill=0;strokeWidth=3;dashed=1;dashPattern=1 1;" edge="1" parent="1" source="nb88-6SHs_HvfBZo1xa0-3" target="nb88-6SHs_HvfBZo1xa0-23">
          <mxGeometry relative="1" as="geometry" />
        </mxCell>
        <mxCell id="nb88-6SHs_HvfBZo1xa0-3" value="Dépôt de fichier" style="rounded=1;whiteSpace=wrap;html=1;" vertex="1" parent="1">
          <mxGeometry x="250" y="160" width="120" height="60" as="geometry" />
        </mxCell>
        <mxCell id="nb88-6SHs_HvfBZo1xa0-11" style="edgeStyle=orthogonalEdgeStyle;rounded=0;orthogonalLoop=1;jettySize=auto;html=1;entryX=0;entryY=0.5;entryDx=0;entryDy=0;" edge="1" parent="1" source="nb88-6SHs_HvfBZo1xa0-4" target="nb88-6SHs_HvfBZo1xa0-5">
          <mxGeometry relative="1" as="geometry" />
        </mxCell>
        <mxCell id="nb88-6SHs_HvfBZo1xa0-4" value="Analyse dossier de dépot" style="rounded=1;whiteSpace=wrap;html=1;" vertex="1" parent="1">
          <mxGeometry x="413.5" y="160" width="120" height="60" as="geometry" />
        </mxCell>
        <mxCell id="nb88-6SHs_HvfBZo1xa0-12" style="edgeStyle=orthogonalEdgeStyle;rounded=0;orthogonalLoop=1;jettySize=auto;html=1;entryX=0;entryY=0.5;entryDx=0;entryDy=0;" edge="1" parent="1" source="nb88-6SHs_HvfBZo1xa0-5" target="nb88-6SHs_HvfBZo1xa0-6">
          <mxGeometry relative="1" as="geometry" />
        </mxCell>
        <mxCell id="nb88-6SHs_HvfBZo1xa0-42" style="edgeStyle=orthogonalEdgeStyle;rounded=0;orthogonalLoop=1;jettySize=auto;html=1;entryX=0.5;entryY=0;entryDx=0;entryDy=0;endArrow=none;startFill=0;strokeWidth=3;dashed=1;dashPattern=1 1;" edge="1" parent="1" source="nb88-6SHs_HvfBZo1xa0-5" target="nb88-6SHs_HvfBZo1xa0-25">
          <mxGeometry relative="1" as="geometry" />
        </mxCell>
        <mxCell id="nb88-6SHs_HvfBZo1xa0-5" value="Contrôle" style="rounded=1;whiteSpace=wrap;html=1;" vertex="1" parent="1">
          <mxGeometry x="570" y="160" width="120" height="60" as="geometry" />
        </mxCell>
        <mxCell id="nb88-6SHs_HvfBZo1xa0-43" style="edgeStyle=orthogonalEdgeStyle;rounded=0;orthogonalLoop=1;jettySize=auto;html=1;entryX=0.5;entryY=0;entryDx=0;entryDy=0;endArrow=none;startFill=0;strokeWidth=3;dashed=1;dashPattern=1 1;" edge="1" parent="1" source="nb88-6SHs_HvfBZo1xa0-6" target="nb88-6SHs_HvfBZo1xa0-28">
          <mxGeometry relative="1" as="geometry" />
        </mxCell>
        <mxCell id="nb88-6SHs_HvfBZo1xa0-50" style="edgeStyle=orthogonalEdgeStyle;rounded=0;orthogonalLoop=1;jettySize=auto;html=1;exitX=1;exitY=0.5;exitDx=0;exitDy=0;entryX=0;entryY=0.5;entryDx=0;entryDy=0;" edge="1" parent="1" source="nb88-6SHs_HvfBZo1xa0-6" target="nb88-6SHs_HvfBZo1xa0-7">
          <mxGeometry relative="1" as="geometry" />
        </mxCell>
        <mxCell id="nb88-6SHs_HvfBZo1xa0-55" style="edgeStyle=orthogonalEdgeStyle;rounded=0;orthogonalLoop=1;jettySize=auto;html=1;entryX=0.5;entryY=0;entryDx=0;entryDy=0;" edge="1" parent="1" source="nb88-6SHs_HvfBZo1xa0-6" target="nb88-6SHs_HvfBZo1xa0-3">
          <mxGeometry relative="1" as="geometry">
            <Array as="points">
              <mxPoint x="800" y="120" />
              <mxPoint x="310" y="120" />
            </Array>
          </mxGeometry>
        </mxCell>
        <mxCell id="nb88-6SHs_HvfBZo1xa0-6" value="Rapport d&#39;analyse" style="rounded=1;whiteSpace=wrap;html=1;" vertex="1" parent="1">
          <mxGeometry x="740" y="160" width="120" height="60" as="geometry" />
        </mxCell>
        <mxCell id="nb88-6SHs_HvfBZo1xa0-45" style="edgeStyle=orthogonalEdgeStyle;rounded=0;orthogonalLoop=1;jettySize=auto;html=1;entryX=0.5;entryY=0;entryDx=0;entryDy=0;endArrow=none;startFill=0;strokeWidth=3;dashed=1;dashPattern=1 1;" edge="1" parent="1" source="nb88-6SHs_HvfBZo1xa0-7" target="nb88-6SHs_HvfBZo1xa0-29">
          <mxGeometry relative="1" as="geometry" />
        </mxCell>
        <mxCell id="nb88-6SHs_HvfBZo1xa0-51" style="edgeStyle=orthogonalEdgeStyle;rounded=0;orthogonalLoop=1;jettySize=auto;html=1;exitX=1;exitY=0.5;exitDx=0;exitDy=0;entryX=0;entryY=0.5;entryDx=0;entryDy=0;" edge="1" parent="1" source="nb88-6SHs_HvfBZo1xa0-7" target="nb88-6SHs_HvfBZo1xa0-8">
          <mxGeometry relative="1" as="geometry" />
        </mxCell>
        <mxCell id="nb88-6SHs_HvfBZo1xa0-7" value="Import base tampon" style="rounded=1;whiteSpace=wrap;html=1;" vertex="1" parent="1">
          <mxGeometry x="890" y="160" width="120" height="60" as="geometry" />
        </mxCell>
        <mxCell id="nb88-6SHs_HvfBZo1xa0-47" style="edgeStyle=orthogonalEdgeStyle;rounded=0;orthogonalLoop=1;jettySize=auto;html=1;entryX=0.5;entryY=0;entryDx=0;entryDy=0;endArrow=none;startFill=0;strokeWidth=3;dashed=1;dashPattern=1 1;" edge="1" parent="1" source="nb88-6SHs_HvfBZo1xa0-8" target="nb88-6SHs_HvfBZo1xa0-30">
          <mxGeometry relative="1" as="geometry" />
        </mxCell>
        <mxCell id="nb88-6SHs_HvfBZo1xa0-52" style="edgeStyle=orthogonalEdgeStyle;rounded=0;orthogonalLoop=1;jettySize=auto;html=1;exitX=1;exitY=0.5;exitDx=0;exitDy=0;entryX=0;entryY=0.5;entryDx=0;entryDy=0;" edge="1" parent="1" source="nb88-6SHs_HvfBZo1xa0-8" target="nb88-6SHs_HvfBZo1xa0-9">
          <mxGeometry relative="1" as="geometry" />
        </mxCell>
        <mxCell id="nb88-6SHs_HvfBZo1xa0-56" style="edgeStyle=orthogonalEdgeStyle;rounded=0;orthogonalLoop=1;jettySize=auto;html=1;entryX=0.5;entryY=0;entryDx=0;entryDy=0;" edge="1" parent="1" source="nb88-6SHs_HvfBZo1xa0-8" target="nb88-6SHs_HvfBZo1xa0-3">
          <mxGeometry relative="1" as="geometry">
            <Array as="points">
              <mxPoint x="1100" y="100" />
              <mxPoint x="310" y="100" />
            </Array>
          </mxGeometry>
        </mxCell>
        <mxCell id="nb88-6SHs_HvfBZo1xa0-8" value="Contrôle métier" style="rounded=1;whiteSpace=wrap;html=1;" vertex="1" parent="1">
          <mxGeometry x="1040" y="160" width="120" height="60" as="geometry" />
        </mxCell>
        <mxCell id="nb88-6SHs_HvfBZo1xa0-48" style="edgeStyle=orthogonalEdgeStyle;rounded=0;orthogonalLoop=1;jettySize=auto;html=1;entryX=0.5;entryY=0;entryDx=0;entryDy=0;endArrow=none;startFill=0;strokeWidth=3;dashed=1;dashPattern=1 1;" edge="1" parent="1" source="nb88-6SHs_HvfBZo1xa0-9" target="nb88-6SHs_HvfBZo1xa0-32">
          <mxGeometry relative="1" as="geometry" />
        </mxCell>
        <mxCell id="nb88-6SHs_HvfBZo1xa0-53" style="edgeStyle=orthogonalEdgeStyle;rounded=0;orthogonalLoop=1;jettySize=auto;html=1;exitX=1;exitY=0.5;exitDx=0;exitDy=0;entryX=0;entryY=0.5;entryDx=0;entryDy=0;" edge="1" parent="1" source="nb88-6SHs_HvfBZo1xa0-9" target="nb88-6SHs_HvfBZo1xa0-49">
          <mxGeometry relative="1" as="geometry" />
        </mxCell>
        <mxCell id="nb88-6SHs_HvfBZo1xa0-9" value="Import base de production" style="rounded=1;whiteSpace=wrap;html=1;" vertex="1" parent="1">
          <mxGeometry x="1190" y="160" width="120" height="60" as="geometry" />
        </mxCell>
        <mxCell id="nb88-6SHs_HvfBZo1xa0-19" style="edgeStyle=orthogonalEdgeStyle;rounded=0;orthogonalLoop=1;jettySize=auto;html=1;" edge="1" parent="1" source="nb88-6SHs_HvfBZo1xa0-13">
          <mxGeometry relative="1" as="geometry">
            <mxPoint x="250" y="190" as="targetPoint" />
            <Array as="points">
              <mxPoint x="210" y="130" />
              <mxPoint x="210" y="190" />
            </Array>
          </mxGeometry>
        </mxCell>
        <mxCell id="nb88-6SHs_HvfBZo1xa0-13" value="Prestataire" style="shape=umlActor;verticalLabelPosition=bottom;verticalAlign=top;html=1;outlineConnect=0;" vertex="1" parent="1">
          <mxGeometry x="150" y="100" width="30" height="60" as="geometry" />
        </mxCell>
        <mxCell id="nb88-6SHs_HvfBZo1xa0-18" style="edgeStyle=orthogonalEdgeStyle;rounded=0;orthogonalLoop=1;jettySize=auto;html=1;entryX=0;entryY=0.5;entryDx=0;entryDy=0;" edge="1" parent="1" source="nb88-6SHs_HvfBZo1xa0-17" target="nb88-6SHs_HvfBZo1xa0-3">
          <mxGeometry relative="1" as="geometry">
            <Array as="points">
              <mxPoint x="210" y="250" />
              <mxPoint x="210" y="190" />
            </Array>
          </mxGeometry>
        </mxCell>
        <mxCell id="nb88-6SHs_HvfBZo1xa0-17" value="PEA" style="shape=umlActor;verticalLabelPosition=bottom;verticalAlign=top;html=1;outlineConnect=0;" vertex="1" parent="1">
          <mxGeometry x="150" y="220" width="30" height="60" as="geometry" />
        </mxCell>
        <mxCell id="nb88-6SHs_HvfBZo1xa0-23" value="Formulaire Périgeo" style="ellipse;whiteSpace=wrap;html=1;" vertex="1" parent="1">
          <mxGeometry x="250" y="260" width="120" height="80" as="geometry" />
        </mxCell>
        <mxCell id="nb88-6SHs_HvfBZo1xa0-24" value="&lt;div&gt;SNIF&lt;/div&gt;Prefect (+python)&lt;div&gt;FME FLOW&lt;/div&gt;&lt;div&gt;Autre&lt;/div&gt;" style="ellipse;whiteSpace=wrap;html=1;" vertex="1" parent="1">
          <mxGeometry x="414" y="260" width="120" height="80" as="geometry" />
        </mxCell>
        <mxCell id="nb88-6SHs_HvfBZo1xa0-25" value="Script Python&lt;div&gt;FME&lt;/div&gt;&lt;div&gt;Autre&lt;/div&gt;" style="ellipse;whiteSpace=wrap;html=1;" vertex="1" parent="1">
          <mxGeometry x="570" y="260" width="120" height="80" as="geometry" />
        </mxCell>
        <mxCell id="nb88-6SHs_HvfBZo1xa0-60" style="edgeStyle=orthogonalEdgeStyle;rounded=0;orthogonalLoop=1;jettySize=auto;html=1;entryX=0.5;entryY=0;entryDx=0;entryDy=0;dashed=1;dashPattern=1 1;strokeColor=default;strokeWidth=3;align=center;verticalAlign=middle;fontFamily=Helvetica;fontSize=11;fontColor=default;labelBackgroundColor=default;startFill=0;endArrow=none;" edge="1" parent="1" source="nb88-6SHs_HvfBZo1xa0-28" target="nb88-6SHs_HvfBZo1xa0-57">
          <mxGeometry relative="1" as="geometry" />
        </mxCell>
        <mxCell id="nb88-6SHs_HvfBZo1xa0-28" value="Script Python&lt;div&gt;FME&lt;/div&gt;&lt;div&gt;Autre&lt;/div&gt;" style="ellipse;whiteSpace=wrap;html=1;" vertex="1" parent="1">
          <mxGeometry x="740" y="260" width="120" height="80" as="geometry" />
        </mxCell>
        <mxCell id="nb88-6SHs_HvfBZo1xa0-29" value="Script Python&lt;div&gt;FME&lt;/div&gt;&lt;div&gt;Autre&lt;/div&gt;" style="ellipse;whiteSpace=wrap;html=1;" vertex="1" parent="1">
          <mxGeometry x="890" y="260" width="120" height="80" as="geometry" />
        </mxCell>
        <mxCell id="nb88-6SHs_HvfBZo1xa0-30" value="PEA" style="ellipse;whiteSpace=wrap;html=1;" vertex="1" parent="1">
          <mxGeometry x="1040" y="260" width="120" height="80" as="geometry" />
        </mxCell>
        <mxCell id="nb88-6SHs_HvfBZo1xa0-32" value="&lt;div&gt;SNIF&lt;/div&gt;Prefect + DBT&lt;div&gt;FME FLOW + FME&lt;/div&gt;&lt;div&gt;Autre&lt;/div&gt;" style="ellipse;whiteSpace=wrap;html=1;" vertex="1" parent="1">
          <mxGeometry x="1190" y="260" width="120" height="80" as="geometry" />
        </mxCell>
        <mxCell id="nb88-6SHs_HvfBZo1xa0-37" value="Interface de Gestion PERIGEO ou autre" style="shape=singleArrow;whiteSpace=wrap;html=1;arrowWidth=0.397619047619051;arrowSize=0.04301075268817204;" vertex="1" parent="1">
          <mxGeometry x="250" y="-40" width="1060" height="120" as="geometry" />
        </mxCell>
        <mxCell id="nb88-6SHs_HvfBZo1xa0-41" value="" style="endArrow=none;html=1;rounded=0;exitX=0.5;exitY=0;exitDx=0;exitDy=0;entryX=0.5;entryY=1;entryDx=0;entryDy=0;strokeWidth=3;dashed=1;dashPattern=1 1;" edge="1" parent="1" source="nb88-6SHs_HvfBZo1xa0-24" target="nb88-6SHs_HvfBZo1xa0-4">
          <mxGeometry width="50" height="50" relative="1" as="geometry">
            <mxPoint x="580" y="420" as="sourcePoint" />
            <mxPoint x="500" y="240" as="targetPoint" />
          </mxGeometry>
        </mxCell>
        <mxCell id="nb88-6SHs_HvfBZo1xa0-49" value="Visualisation" style="rounded=1;whiteSpace=wrap;html=1;" vertex="1" parent="1">
          <mxGeometry x="1350" y="160" width="120" height="60" as="geometry" />
        </mxCell>
        <mxCell id="nb88-6SHs_HvfBZo1xa0-57" value="Visualisation erreurs PERIGEO ou autre" style="rounded=0;whiteSpace=wrap;html=1;" vertex="1" parent="1">
          <mxGeometry x="740" y="380" width="120" height="60" as="geometry" />
        </mxCell>
      </root>
    </mxGraphModel>
  </diagram>
</mxfile>
